<svg width="596" height="132" viewBox="0 0 596 132" fill="none" xmlns="http://www.w3.org/2000/svg">
<g clip-path="url(#clip0_733_11)">
<path d="M432.658 101.965H402.562V131.994H432.658V101.965Z" fill="#844CD4"/>
<path d="M30.0952 41.913H0V131.999H30.0952V41.913Z" fill="#222222"/>
<path d="M485.77 0H455.675V30.0287H485.77V0Z" fill="#222222"/>
<path d="M30.0952 0H0V30.0287H30.0952V0Z" fill="#222222"/>
<path d="M485.77 41.913H455.675V131.999H485.77V41.913Z" fill="#222222"/>
<path d="M596.011 0H508.787V30.0287H596.011V0Z" fill="#222222"/>
<path d="M567.446 30.0352H537.351V132.006H567.446V30.0352Z" fill="#222222"/>
<path d="M309.802 0H279.707V132H309.802V0Z" fill="#222222"/>
<path d="M256.69 30.0287V0H196.511H191.723H166.416V132H191.723H196.511H256.69V101.971H196.511V81.0144H256.69V50.9857H196.511V30.0287H256.69Z" fill="#222222"/>
<path d="M379.464 0H349.369V132H379.464V0Z" fill="#222222"/>
<path d="M310.621 0.776904L284.438 15.7913L351.246 131.78L377.429 116.766L310.621 0.776904Z" fill="#222222"/>
<path d="M128.494 0H53.1125V132.057H128.494C132.452 132.042 136.243 130.463 139.036 127.665C141.83 124.867 143.398 121.078 143.398 117.129V14.9282C143.398 10.9789 141.83 7.19057 139.036 4.39262C136.243 1.59468 132.452 0.0151896 128.494 0V0ZM83.2078 101.971V30.0287H113.303V101.971H83.2078Z" fill="#844CD4"/>
</g>
<defs>
<clipPath id="clip0_733_11">
<rect width="596" height="132" fill="white"/>
</clipPath>
</defs>
</svg>
